<svg width="23" height="23" viewBox="0 0 23 23" fill="none" xmlns="http://www.w3.org/2000/svg">
<path d="M12.6603 0.220215C13.9292 0.223599 14.5733 0.230367 15.1294 0.246158L15.3482 0.254054C15.6008 0.263078 15.8501 0.274358 16.1513 0.287893C17.3514 0.344292 18.1703 0.533792 18.8888 0.812401C19.6332 1.09891 20.2604 1.48693 20.8875 2.11295C21.4611 2.67682 21.9049 3.3589 22.188 4.11172C22.4666 4.83024 22.6561 5.64915 22.7125 6.85044C22.7261 7.15049 22.7373 7.39977 22.7464 7.65356L22.7531 7.87239C22.77 8.42735 22.7768 9.07142 22.7791 10.3404L22.7802 11.1819V12.6595C22.783 13.4823 22.7743 14.305 22.7543 15.1275L22.7475 15.3463C22.7385 15.6001 22.7272 15.8494 22.7136 16.1495C22.6573 17.3507 22.4655 18.1685 22.188 18.8882C21.9057 19.6414 21.4618 20.3237 20.8875 20.8869C20.3235 21.4603 19.6415 21.9041 18.8888 22.1875C18.1703 22.4661 17.3514 22.6556 16.1513 22.712C15.8836 22.7246 15.6159 22.7359 15.3482 22.7458L15.1294 22.7526C14.5733 22.7684 13.9292 22.7763 12.6603 22.7786L11.8189 22.7797H10.3424C9.51928 22.7825 8.69618 22.7739 7.87331 22.7537L7.65449 22.747C7.38673 22.7368 7.11903 22.7252 6.8514 22.712C5.65127 22.6556 4.83238 22.4661 4.11275 22.1875C3.36004 21.9048 2.67826 21.4609 2.11517 20.8869C1.5411 20.3233 1.09689 19.6412 0.813524 18.8882C0.534922 18.1697 0.345428 17.3507 0.28903 16.1495C0.276464 15.8818 0.265184 15.6141 0.255192 15.3463L0.249553 15.1275C0.228767 14.305 0.219366 13.4823 0.221354 12.6595V10.3404C0.218206 9.51765 0.226478 8.6949 0.246169 7.87239L0.254064 7.65356C0.263088 7.39977 0.274367 7.15049 0.287903 6.85044C0.3443 5.64915 0.533794 4.83137 0.812396 4.11172C1.09564 3.35813 1.54073 2.67584 2.1163 2.11295C2.67924 1.53935 3.36058 1.09551 4.11275 0.812401C4.83238 0.533792 5.65014 0.344292 6.8514 0.287893C7.15143 0.274358 7.40183 0.263078 7.65449 0.254054L7.87331 0.247286C8.6958 0.227245 9.51853 0.218597 10.3413 0.221343L12.6603 0.220215ZM11.5008 5.86008C10.005 5.86008 8.57055 6.45428 7.5129 7.51196C6.45525 8.56964 5.86106 10.0042 5.86106 11.5C5.86106 12.9957 6.45525 14.4303 7.5129 15.4879C8.57055 16.5456 10.005 17.1398 11.5008 17.1398C12.9965 17.1398 14.431 16.5456 15.4887 15.4879C16.5463 14.4303 17.1405 12.9957 17.1405 11.5C17.1405 10.0042 16.5463 8.56964 15.4887 7.51196C14.431 6.45428 12.9965 5.86008 11.5008 5.86008ZM11.5008 8.11603C11.9451 8.11596 12.3852 8.20341 12.7958 8.3734C13.2063 8.54339 13.5794 8.79259 13.8937 9.10676C14.2079 9.42093 14.4573 9.79393 14.6274 10.2045C14.7975 10.615 14.8851 11.055 14.8852 11.4994C14.8852 11.9438 14.7978 12.3838 14.6278 12.7944C14.4578 13.205 14.2086 13.5781 13.8945 13.8923C13.5803 14.2066 13.2073 14.4559 12.7968 14.6261C12.3863 14.7962 11.9463 14.8838 11.5019 14.8839C10.6045 14.8839 9.74377 14.5274 9.10918 13.8927C8.47459 13.2581 8.11808 12.3974 8.11808 11.5C8.11808 10.6025 8.47459 9.74177 9.10918 9.10716C9.74377 8.47255 10.6045 8.11603 11.5019 8.11603M17.4236 4.16812C17.0497 4.16812 16.691 4.31667 16.4266 4.58109C16.1622 4.84551 16.0137 5.20414 16.0137 5.57809C16.0137 5.95204 16.1622 6.31067 16.4266 6.57509C16.691 6.83951 17.0497 6.98806 17.4236 6.98806C17.7975 6.98806 18.1562 6.83951 18.4206 6.57509C18.685 6.31067 18.8335 5.95204 18.8335 5.57809C18.8335 5.20414 18.685 4.84551 18.4206 4.58109C18.1562 4.31667 17.7975 4.16812 17.4236 4.16812Z" fill="white"/>
</svg>
