<svg width="23" height="27" viewBox="0 0 23 27" fill="none" xmlns="http://www.w3.org/2000/svg">
<path d="M22.7883 7.17226C21.305 7.17226 19.9363 6.68085 18.8373 5.85185C17.5768 4.90153 16.6711 3.50752 16.3513 1.9008C16.2721 1.50382 16.2295 1.09414 16.2254 0.674316H11.9881V12.2528L11.983 18.5949C11.983 20.2905 10.8788 21.7281 9.34826 22.2338C8.90407 22.3805 8.42434 22.45 7.92481 22.4226C7.2872 22.3876 6.68969 22.1952 6.17037 21.8845C5.06521 21.2235 4.31592 20.0245 4.29561 18.6528C4.26363 16.509 5.99675 14.7611 8.13904 14.7611C8.56191 14.7611 8.96803 14.8302 9.34826 14.9556V11.7909V10.6532C8.94722 10.5938 8.53907 10.5629 8.12635 10.5629C5.78151 10.5629 3.58845 11.5375 2.02082 13.2935C0.835965 14.6205 0.125253 16.3135 0.0155998 18.0888C-0.128066 20.4209 0.725296 22.6379 2.38024 24.2735C2.62341 24.5136 2.87875 24.7365 3.14578 24.9421C4.56466 26.034 6.29931 26.626 8.12635 26.626C8.53907 26.626 8.94722 26.5955 9.34826 26.5361C11.055 26.2833 12.6297 25.502 13.8725 24.2735C15.3995 22.7643 16.2432 20.7606 16.2523 18.6279L16.2305 9.15717C16.959 9.71914 17.7555 10.1842 18.6104 10.5451C19.9399 11.106 21.3497 11.3903 22.8005 11.3898V8.31295V7.17124C22.8015 7.17226 22.7894 7.17226 22.7883 7.17226Z" fill="white"/>
</svg>
