<svg width="25" height="18" viewBox="0 0 25 18" fill="none" xmlns="http://www.w3.org/2000/svg">
<path d="M24.2051 2.70704C23.9203 1.6485 23.0855 0.814071 22.0269 0.529041C20.0929 0 12.3569 0 12.3569 0C12.3569 0 4.62112 0 2.68714 0.508983C1.64888 0.793712 0.793743 1.64865 0.508949 2.70704C0 4.64042 0 8.65 0 8.65C0 8.65 0 12.6798 0.508949 14.593C0.794044 15.6513 1.62852 16.4858 2.68729 16.7708C4.64148 17.3 12.3572 17.3 12.3572 17.3C12.3572 17.3 20.0929 17.3 22.0269 16.791C23.0857 16.5061 23.9203 15.6717 24.2054 14.6133C24.7142 12.6798 24.7142 8.67036 24.7142 8.67036C24.7142 8.67036 24.7345 4.64042 24.2051 2.70704ZM9.89388 12.3542V4.94581L16.3268 8.65L9.89388 12.3542Z" fill="white"/>
</svg>
