<svg width="115" height="47" viewBox="0 0 115 47" fill="none" xmlns="http://www.w3.org/2000/svg">
<path d="M41.6589 10.3315C44.5119 10.3315 46.8247 8.01874 46.8247 5.16576C46.8247 2.31279 44.5119 0 41.6589 0C38.806 0 36.4932 2.31279 36.4932 5.16576C36.4932 8.01874 38.806 10.3315 41.6589 10.3315Z" fill="#6B0EC7"/>
<path d="M15.0397 1.29224H2.82601C0.76626 1.29224 0 1.67605 0 2.82476C0 5.69857 3.30544 3.59102 3.30544 10.2019V25.9123C3.30544 32.5231 0 30.4142 0 33.2894C0 34.4395 0.76626 34.8219 2.82601 34.8219H16.142C27.0636 34.8219 33.7209 27.1579 33.7209 17.4342C33.7209 9.29221 28.1167 1.29224 15.0397 1.29224ZM15.567 31.6134C11.7357 31.6134 11.2084 30.4156 11.2084 28.644V6.514C11.2084 4.74246 11.9269 4.40645 13.7954 4.40645C20.5019 4.40645 25.4833 11.352 25.4833 20.405C25.4833 27.3027 22.2256 31.6134 15.5683 31.6134H15.567Z" fill="#6B0EC7"/>
<path d="M47.037 28.0212V19.591L47.0848 13.0293C47.0848 11.9762 46.7502 11.4011 45.8869 11.4011C45.0729 11.4011 40.7143 12.838 38.798 13.7477C37.6493 14.2749 37.2177 14.6574 37.2177 15.3758C37.2177 16.8127 39.4687 16.7171 39.4687 19.591L39.5165 28.0212C39.5165 32.3797 37.1221 31.1818 37.1221 33.4342C37.1221 34.4873 37.9839 34.8233 39.4687 34.8233H47.1804C48.5695 34.8233 49.3836 34.5842 49.3836 33.482C49.3836 31.1832 47.037 32.3811 47.037 28.0212Z" fill="#6B0EC7"/>
<path d="M67.4431 28.8832C66.39 29.6494 65.2877 30.1767 64.0898 30.1767C62.1735 30.1767 61.4072 29.1236 61.455 24.3321V15.4224L65.4789 15.5658C66.532 15.6136 67.3953 15.3268 67.6821 13.7451C67.9689 12.1648 67.1549 11.8288 66.2452 11.8288H61.5029C61.5507 10.3919 61.5985 9.00277 61.7419 7.61366C61.7897 6.89521 61.2625 6.17676 60.5918 6.17676C60.305 6.17676 59.8255 6.22456 58.5799 6.94302C56.4245 8.14089 53.8375 10.2006 52.066 11.9244C51.4909 12.4516 51.2041 13.1701 51.2041 13.8885C51.2041 14.7504 51.5879 15.2298 53.0248 15.2298H54.0779C53.9823 17.4808 53.9345 20.7384 53.9345 24.3307V27.3479C53.9345 32.5219 56.7605 35.2987 61.2638 35.2987C65.5267 35.2987 68.1615 32.3771 68.9278 29.9827C69.2624 28.9296 68.4484 28.2112 67.4431 28.8804V28.8832Z" fill="#6B0EC7"/>
<path d="M86.7946 28.8832C85.7415 29.6494 84.6393 30.1767 83.4414 30.1767C81.5251 30.1767 80.7588 29.1236 80.8066 24.3321V15.4224L84.8305 15.5658C85.8836 15.6136 86.7468 15.3268 87.0337 13.7451C87.3205 12.1648 86.5064 11.8288 85.5968 11.8288H80.8544C80.9022 10.3919 80.95 9.00277 81.0934 7.61366C81.1413 6.89521 80.614 6.17676 79.9434 6.17676C79.6565 6.17676 79.1771 6.22456 77.9314 6.94302C75.7761 8.14089 73.1891 10.2006 71.4175 11.9244C70.8425 12.4516 70.5557 13.1701 70.5557 13.8885C70.5557 14.7504 70.9395 15.2298 72.3764 15.2298H73.4295C73.3339 17.4808 73.2861 20.7384 73.2861 24.3307V27.3479C73.2861 32.5219 76.1121 35.2987 80.614 35.2987C84.8769 35.2987 87.5117 32.3771 88.278 29.9827C88.6126 28.9296 87.7986 28.2112 86.7933 28.8804L86.7946 28.8832Z" fill="#6B0EC7"/>
<path d="M103.321 11.3521C95.6089 11.3521 89.8135 17.0997 89.8135 24.2378C89.8135 31.3759 94.747 35.3028 101.07 35.3028C108.829 35.3028 114.529 29.842 114.529 22.5618C114.529 16.2392 110.027 11.3534 103.321 11.3534V11.3521ZM103.416 31.7092C99.6806 31.7092 97.1414 26.0571 97.1414 20.7876C97.1414 17.9616 97.9077 14.8473 100.925 14.8473C104.708 14.8473 107.152 21.0266 107.152 26.3426C107.152 29.0252 106.29 31.7078 103.416 31.7078V31.7092Z" fill="#6B0EC7"/>
<path d="M82.6796 44.7039C82.6796 46.1941 83.4854 45.828 83.4854 46.4864C83.4854 46.7801 83.3147 46.877 82.7765 46.877H80.5297C80.0175 46.877 79.8208 46.7801 79.8208 46.4864C79.8208 45.8267 80.6512 46.1927 80.6512 44.7039V43.2875C80.6512 42.9615 80.0489 42.7985 78.8442 42.7985C77.6395 42.7985 77.033 42.9615 77.0248 43.2875V44.7039C77.0248 46.1941 77.843 45.828 77.843 46.4864C77.843 46.7801 77.6722 46.877 77.1218 46.877H74.8872C74.3613 46.877 74.166 46.7801 74.166 46.4864C74.166 45.8267 75.0088 46.1927 75.0088 44.7039V40.5025C75.0088 39.0123 74.1906 39.3783 74.1906 38.72C74.1906 38.4263 74.3613 38.3293 74.9118 38.3293H77.1464C77.6722 38.3293 77.8676 38.4263 77.8676 38.72C77.8676 39.3797 77.0248 39.0123 77.0248 40.5025V41.4067C77.0248 41.7327 77.6354 41.8957 78.8565 41.8957C80.053 41.8957 80.6512 41.7327 80.6512 41.4067V40.5025C80.6512 39.0123 79.8454 39.3783 79.8454 38.72C79.8454 38.4263 80.0161 38.3293 80.5542 38.3293H82.8011C83.3147 38.3293 83.51 38.4263 83.51 38.72C83.51 39.3797 82.6796 39.0123 82.6796 40.5025V44.7039Z" fill="#6B0EC7"/>
<path d="M89.9456 45.2162C89.7134 45.9374 88.663 46.9987 86.9898 46.9987C85.3166 46.9987 84.0586 45.8145 84.0586 44.1167C84.0586 42.2236 85.5979 40.8918 87.2466 40.8918C88.7859 40.8918 89.6041 41.8316 89.7502 42.871C89.7748 43.054 89.6765 43.2371 89.4689 43.3354C88.2601 43.9214 87.4173 44.2751 86.2208 44.7395C86.4776 45.2162 86.9775 45.6437 87.8325 45.6437C88.5414 45.6437 89.1028 45.2777 89.5426 44.8625C89.8117 44.6057 90.0685 44.8379 89.9456 45.2162ZM85.8301 43.1647C85.8301 43.4215 85.8793 43.7506 85.9394 43.946C86.5008 43.7506 87.0758 43.543 87.6126 43.2862C87.8202 43.1893 88.0278 43.1155 87.9186 42.7494C87.7233 42.0651 87.1865 41.6622 86.636 41.8097C86.1224 41.9313 85.8301 42.4448 85.8301 43.1647Z" fill="#6B0EC7"/>
<path d="M97.4325 46.0834C97.4325 46.5478 96.6635 46.9753 96.0653 46.9753C95.5408 46.9753 95.1487 46.7185 94.9302 46.0957C94.3074 46.7308 93.4892 46.9753 92.7557 46.9753C91.4609 46.9753 90.5703 46.2309 90.5703 45.2174C90.5703 44.0578 91.5838 43.1904 93.44 43.1904C93.6599 43.1904 93.8553 43.215 94.2459 43.2519C94.0383 42.5922 93.7446 42.0308 92.9142 42.0308C92.4375 42.0308 91.913 42.263 91.51 42.4829C91.2778 42.6291 90.9842 42.446 91.1809 42.1046C91.4977 41.5555 92.4511 40.8958 93.6476 40.8958C95.3208 40.8958 95.7484 42.08 96.042 43.0702L96.6649 45.1956C96.7864 45.6231 96.9217 45.8676 97.214 45.8553C97.3478 45.843 97.4339 45.9413 97.4339 46.0875L97.4325 46.0834ZM94.6857 45.1314C94.6611 44.9606 94.5519 44.6547 94.4289 44.2886C94.332 44.0072 94.026 43.8857 93.6231 43.8857C92.8541 43.8857 92.3774 44.2886 92.3774 44.8869C92.3774 45.5343 92.8664 46.011 93.5985 46.011C94.209 46.011 94.7827 45.608 94.6857 45.1314Z" fill="#6B0EC7"/>
<path d="M98.4209 40.295C98.4209 39.5615 97.8472 39.5861 97.8472 39.22C97.8472 39.037 97.9579 38.9387 98.2502 38.8048C98.7392 38.5726 99.8496 38.2065 100.045 38.2065C100.277 38.2065 100.362 38.3527 100.362 38.6218L100.35 40.295V45.1439C100.35 46.2557 100.948 45.9497 100.948 46.5357C100.948 46.8171 100.74 46.8772 100.386 46.8772H98.4072C98.0412 46.8772 97.8213 46.7911 97.8213 46.5234C97.8213 45.9497 98.4318 46.2543 98.4318 45.1439L98.4195 40.295H98.4209Z" fill="#6B0EC7"/>
<path d="M106.006 45.6436C105.811 46.2541 105.139 46.9999 104.051 46.9999C102.903 46.9999 102.183 46.291 102.183 44.9729V44.2039C102.183 43.2874 102.195 42.457 102.22 41.8833H101.951C101.585 41.8833 101.486 41.7617 101.486 41.5418C101.486 41.3588 101.56 41.1758 101.706 41.0405C102.158 40.6007 102.818 40.0762 103.367 39.7703C103.684 39.5872 103.807 39.575 103.881 39.575C104.051 39.575 104.187 39.758 104.174 39.941C104.138 40.2948 104.125 40.6499 104.113 41.016H105.322C105.554 41.016 105.762 41.102 105.688 41.5049C105.614 41.9079 105.394 41.9816 105.126 41.9693L104.101 41.9325V44.2039C104.088 45.425 104.284 45.6941 104.773 45.6941C105.079 45.6941 105.359 45.5602 105.628 45.3649C105.884 45.1942 106.092 45.3772 106.006 45.6463V45.6436Z" fill="#6B0EC7"/>
<path d="M113.577 45.4361C113.736 46.1805 114.212 46.0712 114.212 46.5356C114.212 46.817 113.992 46.8771 113.651 46.8771H111.733C111.367 46.8771 111.147 46.791 111.147 46.5233C111.147 46.0958 111.795 46.1081 111.624 45.3145L111.233 43.4337C111.087 42.7617 110.843 42.1019 110.183 42.1142C109.609 42.1142 109.157 42.6401 109.157 43.4938V45.1424C109.157 46.2542 109.755 45.9483 109.755 46.5342C109.755 46.8156 109.548 46.8757 109.194 46.8757H107.215C106.849 46.8757 106.629 46.7896 106.629 46.5219C106.629 45.9483 107.239 46.2529 107.239 45.1424L107.227 40.2935C107.227 39.56 106.653 39.5846 106.653 39.2186C106.653 39.0355 106.764 38.9372 107.056 38.8033C107.545 38.5711 108.656 38.2051 108.851 38.2051C109.083 38.2051 109.168 38.3512 109.168 38.6203L109.156 40.2935V41.6375C109.596 41.1486 110.206 40.8931 110.878 40.8931C112.356 40.8931 112.82 41.9066 113.137 43.3845L113.577 45.4361Z" fill="#6B0EC7"/>
</svg>
