<svg width="115" height="47" viewBox="0 0 115 47" fill="none" xmlns="http://www.w3.org/2000/svg">
<path d="M41.6599 10.3315C44.5129 10.3315 46.8257 8.01874 46.8257 5.16576C46.8257 2.31279 44.5129 0 41.6599 0C38.8069 0 36.4941 2.31279 36.4941 5.16576C36.4941 8.01874 38.8069 10.3315 41.6599 10.3315Z" fill="white"/>
<path d="M15.0397 1.29199H2.82601C0.76626 1.29199 0 1.67581 0 2.82451C0 5.69833 3.30544 3.59077 3.30544 10.2016V25.912C3.30544 32.5229 0 30.414 0 33.2891C0 34.4392 0.76626 34.8217 2.82601 34.8217H16.142C27.0636 34.8217 33.7209 27.1577 33.7209 17.434C33.7209 9.29196 28.1167 1.29199 15.0397 1.29199ZM15.567 31.6132C11.7357 31.6132 11.2084 30.4153 11.2084 28.6438V6.51376C11.2084 4.74221 11.9269 4.4062 13.7954 4.4062C20.5019 4.4062 25.4833 11.3517 25.4833 20.4048C25.4833 27.3025 22.2256 31.6132 15.5683 31.6132H15.567Z" fill="white"/>
<path d="M47.036 28.0209V19.5907L47.0838 13.029C47.0838 11.9759 46.7492 11.4009 45.886 11.4009C45.0719 11.4009 40.7134 12.8378 38.797 13.7475C37.6483 14.2747 37.2167 14.6571 37.2167 15.3756C37.2167 16.8125 39.4677 16.7169 39.4677 19.5907L39.5155 28.0209C39.5155 32.3795 37.1211 31.1816 37.1211 33.4339C37.1211 34.487 37.983 34.823 39.4677 34.823H47.1794C48.5685 34.823 49.3826 34.584 49.3826 33.4817C49.3826 31.1829 47.036 32.3808 47.036 28.0209Z" fill="white"/>
<path d="M67.4441 28.8827C66.391 29.649 65.2887 30.1762 64.0908 30.1762C62.1745 30.1762 61.4082 29.1231 61.456 24.3316V15.4219L65.4799 15.5653C66.533 15.6131 67.3962 15.3263 67.6831 13.7446C67.9699 12.1643 67.1558 11.8283 66.2462 11.8283H61.5038C61.5516 10.3914 61.5994 9.00228 61.7429 7.61318C61.7907 6.89472 61.2634 6.17627 60.5928 6.17627C60.3059 6.17627 59.8265 6.22407 58.5808 6.94253C56.4255 8.14041 53.8385 10.2002 52.0669 11.9239C51.4919 12.4511 51.2051 13.1696 51.2051 13.888C51.2051 14.7499 51.5889 15.2293 53.0258 15.2293H54.0789C53.9833 17.4803 53.9355 20.7379 53.9355 24.3302V27.3474C53.9355 32.5214 56.7615 35.2982 61.2648 35.2982C65.5277 35.2982 68.1625 32.3766 68.9288 29.9822C69.2634 28.9291 68.4493 28.2107 67.4441 28.88V28.8827Z" fill="white"/>
<path d="M86.7956 28.8827C85.7425 29.649 84.6403 30.1762 83.4424 30.1762C81.526 30.1762 80.7598 29.1231 80.8076 24.3316V15.4219L84.8315 15.5653C85.8846 15.6131 86.7478 15.3263 87.0346 13.7446C87.3215 12.1643 86.5074 11.8283 85.5977 11.8283H80.8554C80.9032 10.3914 80.951 9.00228 81.0944 7.61318C81.1422 6.89472 80.615 6.17627 79.9443 6.17627C79.6575 6.17627 79.1781 6.22407 77.9324 6.94253C75.777 8.14041 73.1901 10.2002 71.4185 11.9239C70.8435 12.4511 70.5566 13.1696 70.5566 13.888C70.5566 14.7499 70.9405 15.2293 72.3774 15.2293H73.4305C73.3348 17.4803 73.287 20.7379 73.287 24.3302V27.3474C73.287 32.5214 76.1131 35.2982 80.615 35.2982C84.8779 35.2982 87.5127 32.3766 88.279 29.9822C88.6136 28.9291 87.7995 28.2107 86.7942 28.88L86.7956 28.8827Z" fill="white"/>
<path d="M103.322 11.3516C95.6099 11.3516 89.8145 17.0992 89.8145 24.2373C89.8145 31.3754 94.748 35.3023 101.071 35.3023C108.83 35.3023 114.53 29.8415 114.53 22.5614C114.53 16.2387 110.028 11.3529 103.322 11.3529V11.3516ZM103.417 31.7087C99.6816 31.7087 97.1424 26.0567 97.1424 20.7871C97.1424 17.9611 97.9087 14.8469 100.926 14.8469C104.709 14.8469 107.153 21.0261 107.153 26.3421C107.153 29.0247 106.291 31.7073 103.417 31.7073V31.7087Z" fill="white"/>
<path d="M82.6776 44.7042C82.6776 46.1943 83.4835 45.8283 83.4835 46.4866C83.4835 46.7803 83.3127 46.8773 82.7746 46.8773H80.5277C80.0155 46.8773 79.8188 46.7803 79.8188 46.4866C79.8188 45.8269 80.6493 46.193 80.6493 44.7042V43.2877C80.6493 42.9617 80.0469 42.7988 78.8422 42.7988C77.6375 42.7988 77.031 42.9617 77.0229 43.2877V44.7042C77.0229 46.1943 77.841 45.8283 77.841 46.4866C77.841 46.7803 77.6703 46.8773 77.1198 46.8773H74.8853C74.3594 46.8773 74.1641 46.7803 74.1641 46.4866C74.1641 45.8269 75.0068 46.193 75.0068 44.7042V40.5027C75.0068 39.0125 74.1886 39.3786 74.1886 38.7202C74.1886 38.4266 74.3594 38.3296 74.9098 38.3296H77.1444C77.6703 38.3296 77.8656 38.4266 77.8656 38.7202C77.8656 39.38 77.0229 39.0125 77.0229 40.5027V41.4069C77.0229 41.7329 77.6334 41.8959 78.8545 41.8959C80.051 41.8959 80.6493 41.7329 80.6493 41.4069V40.5027C80.6493 39.0125 79.8434 39.3786 79.8434 38.7202C79.8434 38.4266 80.0141 38.3296 80.5523 38.3296H82.7992C83.3127 38.3296 83.5081 38.4266 83.5081 38.7202C83.5081 39.38 82.6776 39.0125 82.6776 40.5027V44.7042Z" fill="white"/>
<path d="M89.9456 45.216C89.7134 45.9372 88.663 46.9985 86.9898 46.9985C85.3166 46.9985 84.0586 45.8142 84.0586 44.1164C84.0586 42.2233 85.5979 40.8916 87.2466 40.8916C88.7859 40.8916 89.6041 41.8313 89.7502 42.8708C89.7748 43.0538 89.6765 43.2368 89.4689 43.3352C88.2601 43.9211 87.4173 44.2749 86.2208 44.7393C86.4776 45.216 86.9775 45.6435 87.8325 45.6435C88.5414 45.6435 89.1028 45.2775 89.5426 44.8622C89.8117 44.6054 90.0685 44.8376 89.9456 45.216ZM85.8301 43.1644C85.8301 43.4212 85.8793 43.7504 85.9394 43.9457C86.5008 43.7504 87.0758 43.5428 87.6126 43.286C87.8202 43.189 88.0278 43.1153 87.9186 42.7492C87.7233 42.0649 87.1865 41.662 86.636 41.8095C86.1224 41.931 85.8301 42.4446 85.8301 43.1644Z" fill="white"/>
<path d="M97.4305 46.0836C97.4305 46.548 96.6616 46.9755 96.0633 46.9755C95.5388 46.9755 95.1468 46.7188 94.9283 46.0959C94.3054 46.731 93.4872 46.9755 92.7538 46.9755C91.4589 46.9755 90.5684 46.2311 90.5684 45.2176C90.5684 44.058 91.5818 43.1907 93.4381 43.1907C93.658 43.1907 93.8533 43.2153 94.2439 43.2521C94.0363 42.5924 93.7427 42.031 92.9122 42.031C92.4355 42.031 91.911 42.2632 91.5081 42.4832C91.2759 42.6293 90.9822 42.4463 91.1789 42.1048C91.4958 41.5557 92.4492 40.896 93.6457 40.896C95.3189 40.896 95.7464 42.0802 96.0401 43.0705L96.6629 45.1958C96.7845 45.6233 96.9197 45.8678 97.212 45.8555C97.3459 45.8432 97.4319 45.9416 97.4319 46.0877L97.4305 46.0836ZM94.6838 45.1316C94.6592 44.9609 94.5499 44.6549 94.427 44.2889C94.33 44.0075 94.024 43.8859 93.6211 43.8859C92.8521 43.8859 92.3754 44.2889 92.3754 44.8871C92.3754 45.5345 92.8644 46.0112 93.5965 46.0112C94.2071 46.0112 94.7807 45.6083 94.6838 45.1316Z" fill="white"/>
<path d="M98.4199 40.295C98.4199 39.5615 97.8463 39.5861 97.8463 39.22C97.8463 39.037 97.9569 38.9387 98.2492 38.8048C98.7382 38.5726 99.8486 38.2065 100.044 38.2065C100.276 38.2065 100.361 38.3527 100.361 38.6218L100.349 40.295V45.1439C100.349 46.2557 100.947 45.9497 100.947 46.5357C100.947 46.8171 100.739 46.8772 100.385 46.8772H98.4063C98.0402 46.8772 97.8203 46.7911 97.8203 46.5234C97.8203 45.9497 98.4309 46.2543 98.4309 45.1439L98.4186 40.295H98.4199Z" fill="white"/>
<path d="M106.004 45.6438C105.809 46.2544 105.137 47.0001 104.05 47.0001C102.901 47.0001 102.181 46.2912 102.181 44.9732V44.2042C102.181 43.2877 102.193 42.4572 102.218 41.8835H101.949C101.583 41.8835 101.484 41.762 101.484 41.5421C101.484 41.359 101.558 41.176 101.704 41.0408C102.156 40.601 102.816 40.0765 103.365 39.7705C103.682 39.5875 103.805 39.5752 103.879 39.5752C104.05 39.5752 104.185 39.7582 104.172 39.9413C104.136 40.295 104.123 40.6501 104.111 41.0162H105.32C105.552 41.0162 105.76 41.1023 105.686 41.5052C105.612 41.9081 105.392 41.9819 105.124 41.9696L104.099 41.9327V44.2042C104.086 45.4253 104.282 45.6943 104.771 45.6943C105.077 45.6943 105.357 45.5605 105.626 45.3652C105.883 45.1944 106.09 45.3775 106.004 45.6465V45.6438Z" fill="white"/>
<path d="M113.575 45.4361C113.734 46.1805 114.21 46.0712 114.21 46.5356C114.21 46.817 113.99 46.8771 113.649 46.8771H111.731C111.365 46.8771 111.145 46.791 111.145 46.5233C111.145 46.0958 111.793 46.1081 111.622 45.3145L111.231 43.4337C111.085 42.7617 110.841 42.1019 110.181 42.1142C109.607 42.1142 109.155 42.6401 109.155 43.4938V45.1424C109.155 46.2542 109.753 45.9483 109.753 46.5342C109.753 46.8156 109.546 46.8757 109.192 46.8757H107.213C106.847 46.8757 106.627 46.7896 106.627 46.5219C106.627 45.9483 107.237 46.2529 107.237 45.1424L107.225 40.2935C107.225 39.56 106.652 39.5846 106.652 39.2186C106.652 39.0355 106.762 38.9372 107.054 38.8033C107.543 38.5711 108.654 38.2051 108.849 38.2051C109.081 38.2051 109.166 38.3512 109.166 38.6203L109.154 40.2935V41.6375C109.594 41.1486 110.204 40.8931 110.876 40.8931C112.354 40.8931 112.819 41.9066 113.135 43.3845L113.575 45.4361Z" fill="white"/>
</svg>
